<!DOCTYPE svg PUBLIC "-//W3C//DTD SVG 1.1//EN" "http://www.w3.org/Graphics/SVG/1.1/DTD/svg11.dtd">

<!-- Uploaded to: SVG Repo, www.svgrepo.com, Transformed by: SVG Repo Mixer Tools -->
<svg width="64px" height="64px" viewBox="0 0 24 24" xmlns="http://www.w3.org/2000/svg" fill="#000000">

<g id="SVGRepo_bgCarrier" stroke-width="0"/>

<g id="SVGRepo_tracerCarrier" stroke-linecap="round" stroke-linejoin="round"/>

<g id="SVGRepo_iconCarrier"> <path d="M3,11H5v2H3V11m8-6h2V9H11V5M9,11h4v4H11V13H9V11m6,0h2v2h2V11h2v2H19v2h2v4H19v2H17V19H13v2H11V17h4V15h2V13H15V11m4,8V15H17v4h2M15,3h6V9H15V3m2,2V7h2V5H17M3,3H9V9H3V3M5,5V7H7V5H5M3,15H9v6H3V15m2,2v2H7V17Z"/> <rect width="24" height="24" fill="none"/> </g>

</svg>