<!DOCTYPE svg PUBLIC "-//W3C//DTD SVG 1.1//EN" "http://www.w3.org/Graphics/SVG/1.1/DTD/svg11.dtd">
<!-- Uploaded to: SVG Repo, www.svgrepo.com, Transformed by: SVG Repo Mixer Tools -->
<svg fill="#000000" width="64px" height="64px" viewBox="0 0 32 32" xmlns="http://www.w3.org/2000/svg" transform="rotate(0)">
<g id="SVGRepo_bgCarrier" stroke-width="0"/>
<g id="SVGRepo_tracerCarrier" stroke-linecap="round" stroke-linejoin="round"/>
<g id="SVGRepo_iconCarrier"> <title/> <g data-name="Layer 10" id="Layer_10"> <path d="M16,2A10,10,0,0,0,6,12c0,5.15,8.26,16.34,9.2,17.6a1,1,0,0,0,1.6,0C17.74,28.34,26,17.15,26,12A10,10,0,0,0,16,2Zm0,25.3C13.2,23.39,8,15.43,8,12a8,8,0,0,1,16,0C24,15.43,18.8,23.39,16,27.3Z"/> <path d="M16,7a5,5,0,1,0,5,5A5,5,0,0,0,16,7Zm0,8a3,3,0,1,1,3-3A3,3,0,0,1,16,15Z"/> </g> </g>
</svg>